# xmcd
#
# Track frame offsets: 
#        150
#        18787
#        42707
#        57632
#        81948
#        105598
#        126591
#        151072
#        171389
#        194479
#        211569
#        239963
#        256433
#        273797
#        287910
#        311987
#        336521
#
# Disc length: 4799 seconds
#
# Revision: 0
# Processed by: cddbd v1.5.1PL2 Copyright (c) Steve Scherf et al.
# Submitted via: ExactAudioCopy v0.95b2
#
DISCID=0c12bd11
DTITLE=Иванов Александр - Русские Звёзды
DYEAR=1900
DGENRE=Pop
TTITLE0=Мечты
TTITLE1=Боже, Какой Пустяк
TTITLE2=Тоже Является Частью Вселенной
TTITLE3=Моя Неласковая Русь
TTITLE4=Московская Осень
TTITLE5=Не Улетай
TTITLE6=Невской Проспект
TTITLE7=Дом Хрустальный
TTITLE8=Я Тебя Не Долюбил
TTITLE9=Сумасшедшая Девчонка
TTITLE10=Было Так Я Любил И Страдал
TTITLE11=Как Жаль...
TTITLE12=Ночь
TTITLE13=Ты Мой Свет
TTITLE14=Я Постелю Тебе Под Ноги Ночь
TTITLE15=Счасть На Двоих
TTITLE16=Я Буду Помнить
EXTD=
EXTT0=
EXTT1=
EXTT2=
EXTT3=
EXTT4=
EXTT5=
EXTT6=
EXTT7=
EXTT8=
EXTT9=
EXTT10=
EXTT11=
EXTT12=
EXTT13=
EXTT14=
EXTT15=
EXTT16=
PLAYORDER=
